<mxfile host="app.diagrams.net" modified="2024-06-19T07:06:13.888Z" agent="Mozilla/5.0 (Macintosh; Intel Mac OS X 10_15_7) AppleWebKit/537.36 (KHTML, like Gecko) Chrome/125.0.0.0 Safari/537.36" etag="8yeP8S2eSRHWlWW6SKUb" version="24.5.5" type="github">
  <diagram name="Page-1" id="03018318-947c-dd8e-b7a3-06fadd420f32">
    <mxGraphModel dx="1172" dy="513" grid="1" gridSize="10" guides="1" tooltips="1" connect="1" arrows="1" fold="1" page="1" pageScale="1" pageWidth="1100" pageHeight="850" background="none" math="0" shadow="0">
      <root>
        <mxCell id="0" />
        <mxCell id="1" parent="0" />
        <mxCell id="IA07FoAzd7XtIn1neWYw-2" value="浏览器" style="swimlane;whiteSpace=wrap;html=1;" parent="1" vertex="1">
          <mxGeometry x="100" y="80" width="740" height="415" as="geometry" />
        </mxCell>
        <mxCell id="IA07FoAzd7XtIn1neWYw-4" value="" style="rounded=0;whiteSpace=wrap;html=1;" parent="IA07FoAzd7XtIn1neWYw-2" vertex="1">
          <mxGeometry x="20" y="40" width="290" height="350" as="geometry" />
        </mxCell>
        <mxCell id="IA07FoAzd7XtIn1neWYw-5" value="" style="rounded=0;whiteSpace=wrap;html=1;fillColor=none;" parent="IA07FoAzd7XtIn1neWYw-2" vertex="1">
          <mxGeometry x="350" y="40" width="140" height="350" as="geometry" />
        </mxCell>
        <mxCell id="IA07FoAzd7XtIn1neWYw-6" value="" style="rounded=0;whiteSpace=wrap;html=1;" parent="IA07FoAzd7XtIn1neWYw-2" vertex="1">
          <mxGeometry x="540" y="37.5" width="150" height="352.5" as="geometry" />
        </mxCell>
        <mxCell id="IA07FoAzd7XtIn1neWYw-7" value="网页" style="text;html=1;align=center;verticalAlign=middle;whiteSpace=wrap;rounded=0;" parent="IA07FoAzd7XtIn1neWYw-2" vertex="1">
          <mxGeometry x="135" y="33" width="60" height="30" as="geometry" />
        </mxCell>
        <mxCell id="IA07FoAzd7XtIn1neWYw-8" value="SDK" style="text;html=1;align=center;verticalAlign=middle;whiteSpace=wrap;rounded=0;" parent="IA07FoAzd7XtIn1neWYw-2" vertex="1">
          <mxGeometry x="385" y="33" width="60" height="30" as="geometry" />
        </mxCell>
        <mxCell id="IA07FoAzd7XtIn1neWYw-9" value="小明插件" style="text;html=1;align=center;verticalAlign=middle;whiteSpace=wrap;rounded=0;" parent="IA07FoAzd7XtIn1neWYw-2" vertex="1">
          <mxGeometry x="585" y="32" width="60" height="30" as="geometry" />
        </mxCell>
        <mxCell id="IA07FoAzd7XtIn1neWYw-13" value="" style="endArrow=none;html=1;rounded=0;" parent="IA07FoAzd7XtIn1neWYw-2" target="IA07FoAzd7XtIn1neWYw-5" edge="1">
          <mxGeometry width="50" height="50" relative="1" as="geometry">
            <mxPoint x="350" y="330" as="sourcePoint" />
            <mxPoint x="400" y="280" as="targetPoint" />
          </mxGeometry>
        </mxCell>
        <mxCell id="IA07FoAzd7XtIn1neWYw-17" value="" style="endArrow=none;html=1;rounded=0;exitX=0;exitY=0.5;exitDx=0;exitDy=0;entryX=1;entryY=0.5;entryDx=0;entryDy=0;" parent="IA07FoAzd7XtIn1neWYw-2" source="IA07FoAzd7XtIn1neWYw-5" target="IA07FoAzd7XtIn1neWYw-5" edge="1">
          <mxGeometry width="50" height="50" relative="1" as="geometry">
            <mxPoint x="390" y="290" as="sourcePoint" />
            <mxPoint x="440" y="240" as="targetPoint" />
          </mxGeometry>
        </mxCell>
        <mxCell id="IA07FoAzd7XtIn1neWYw-18" value="" style="endArrow=none;html=1;rounded=0;exitX=0;exitY=0.25;exitDx=0;exitDy=0;entryX=1;entryY=0.25;entryDx=0;entryDy=0;" parent="IA07FoAzd7XtIn1neWYw-2" edge="1">
          <mxGeometry width="50" height="50" relative="1" as="geometry">
            <mxPoint x="350" y="105.5" as="sourcePoint" />
            <mxPoint x="490" y="105.5" as="targetPoint" />
          </mxGeometry>
        </mxCell>
        <mxCell id="IA07FoAzd7XtIn1neWYw-21" value="③ Server SDK" style="text;html=1;align=center;verticalAlign=middle;whiteSpace=wrap;rounded=0;" parent="IA07FoAzd7XtIn1neWYw-2" vertex="1">
          <mxGeometry x="365" y="210" width="110" height="30" as="geometry" />
        </mxCell>
        <mxCell id="IA07FoAzd7XtIn1neWYw-22" value="① Client SDK" style="text;html=1;align=center;verticalAlign=middle;whiteSpace=wrap;rounded=0;" parent="IA07FoAzd7XtIn1neWYw-2" vertex="1">
          <mxGeometry x="376.25" y="53" width="77.5" height="30" as="geometry" />
        </mxCell>
        <mxCell id="IA07FoAzd7XtIn1neWYw-23" value="② Bridge SDK" style="text;html=1;align=center;verticalAlign=middle;whiteSpace=wrap;rounded=0;" parent="IA07FoAzd7XtIn1neWYw-2" vertex="1">
          <mxGeometry x="365" y="98" width="110" height="30" as="geometry" />
        </mxCell>
        <mxCell id="IA07FoAzd7XtIn1neWYw-24" value="" style="endArrow=none;html=1;rounded=0;entryX=0.993;entryY=0.063;entryDx=0;entryDy=0;entryPerimeter=0;" parent="IA07FoAzd7XtIn1neWYw-2" edge="1">
          <mxGeometry width="50" height="50" relative="1" as="geometry">
            <mxPoint x="350" y="60" as="sourcePoint" />
            <mxPoint x="490" y="59.899999999999956" as="targetPoint" />
          </mxGeometry>
        </mxCell>
        <mxCell id="889P60M4afETW43CCBk1-1" value="" style="endArrow=classic;startArrow=classic;html=1;rounded=0;entryX=0;entryY=0.75;entryDx=0;entryDy=0;exitX=1;exitY=0.75;exitDx=0;exitDy=0;" edge="1" parent="IA07FoAzd7XtIn1neWYw-2" source="IA07FoAzd7XtIn1neWYw-4" target="IA07FoAzd7XtIn1neWYw-5">
          <mxGeometry width="50" height="50" relative="1" as="geometry">
            <mxPoint x="290" y="330" as="sourcePoint" />
            <mxPoint x="340" y="280" as="targetPoint" />
          </mxGeometry>
        </mxCell>
        <mxCell id="889P60M4afETW43CCBk1-5" value="" style="endArrow=classic;startArrow=classic;html=1;rounded=0;exitX=1.007;exitY=0.12;exitDx=0;exitDy=0;exitPerimeter=0;entryX=0;entryY=0.12;entryDx=0;entryDy=0;entryPerimeter=0;" edge="1" parent="IA07FoAzd7XtIn1neWYw-2" source="IA07FoAzd7XtIn1neWYw-4" target="IA07FoAzd7XtIn1neWYw-5">
          <mxGeometry width="50" height="50" relative="1" as="geometry">
            <mxPoint x="320" y="90" as="sourcePoint" />
            <mxPoint x="370" y="40" as="targetPoint" />
          </mxGeometry>
        </mxCell>
        <mxCell id="889P60M4afETW43CCBk1-12" value="" style="group" vertex="1" connectable="0" parent="IA07FoAzd7XtIn1neWYw-2">
          <mxGeometry x="310" y="174.5" width="230" as="geometry" />
        </mxCell>
        <mxCell id="889P60M4afETW43CCBk1-9" value="" style="endArrow=none;html=1;rounded=0;startArrow=classic;startFill=1;" edge="1" parent="889P60M4afETW43CCBk1-12">
          <mxGeometry width="50" height="50" relative="1" as="geometry">
            <mxPoint as="sourcePoint" />
            <mxPoint x="40" as="targetPoint" />
          </mxGeometry>
        </mxCell>
        <mxCell id="889P60M4afETW43CCBk1-10" value="" style="endArrow=none;dashed=1;html=1;rounded=0;entryX=1.003;entryY=0.314;entryDx=0;entryDy=0;entryPerimeter=0;" edge="1" parent="889P60M4afETW43CCBk1-12">
          <mxGeometry width="50" height="50" relative="1" as="geometry">
            <mxPoint x="40" as="sourcePoint" />
            <mxPoint x="180" as="targetPoint" />
          </mxGeometry>
        </mxCell>
        <mxCell id="889P60M4afETW43CCBk1-11" value="" style="endArrow=none;html=1;rounded=0;entryX=-0.002;entryY=0.319;entryDx=0;entryDy=0;entryPerimeter=0;endFill=0;" edge="1" parent="889P60M4afETW43CCBk1-12">
          <mxGeometry width="50" height="50" relative="1" as="geometry">
            <mxPoint x="180" as="sourcePoint" />
            <mxPoint x="230" as="targetPoint" />
          </mxGeometry>
        </mxCell>
        <mxCell id="889P60M4afETW43CCBk1-14" value="" style="group" vertex="1" connectable="0" parent="IA07FoAzd7XtIn1neWYw-2">
          <mxGeometry x="310" y="143" width="179.44444444444446" as="geometry" />
        </mxCell>
        <mxCell id="889P60M4afETW43CCBk1-15" value="" style="group" vertex="1" connectable="0" parent="889P60M4afETW43CCBk1-14">
          <mxGeometry y="-10.100000000000023" width="230" height="0.10000000000002274" as="geometry" />
        </mxCell>
        <mxCell id="889P60M4afETW43CCBk1-8" value="" style="endArrow=classic;html=1;rounded=0;exitX=0.998;exitY=0.294;exitDx=0;exitDy=0;exitPerimeter=0;" edge="1" parent="889P60M4afETW43CCBk1-15">
          <mxGeometry width="50" height="50" relative="1" as="geometry">
            <mxPoint x="179.72000000000003" as="sourcePoint" />
            <mxPoint x="230" y="0.10000000000002274" as="targetPoint" />
          </mxGeometry>
        </mxCell>
        <mxCell id="889P60M4afETW43CCBk1-3" value="" style="endArrow=none;html=1;rounded=0;" edge="1" parent="889P60M4afETW43CCBk1-15">
          <mxGeometry width="50" height="50" relative="1" as="geometry">
            <mxPoint y="0.10000000000002274" as="sourcePoint" />
            <mxPoint x="37.77777777777777" y="0.10000000000002274" as="targetPoint" />
          </mxGeometry>
        </mxCell>
        <mxCell id="889P60M4afETW43CCBk1-7" value="" style="endArrow=none;dashed=1;html=1;rounded=0;" edge="1" parent="889P60M4afETW43CCBk1-15">
          <mxGeometry width="50" height="50" relative="1" as="geometry">
            <mxPoint x="37.77777777777777" y="0.10000000000002274" as="sourcePoint" />
            <mxPoint x="179.44444444444446" y="0.10000000000002274" as="targetPoint" />
          </mxGeometry>
        </mxCell>
        <mxCell id="889P60M4afETW43CCBk1-16" value="" style="endArrow=none;dashed=1;html=1;rounded=0;exitX=1.001;exitY=0.114;exitDx=0;exitDy=0;exitPerimeter=0;entryX=-0.007;entryY=0.118;entryDx=0;entryDy=0;entryPerimeter=0;startArrow=classicThin;startFill=0;" edge="1" parent="IA07FoAzd7XtIn1neWYw-2" source="IA07FoAzd7XtIn1neWYw-5" target="IA07FoAzd7XtIn1neWYw-6">
          <mxGeometry width="50" height="50" relative="1" as="geometry">
            <mxPoint x="490" y="90" as="sourcePoint" />
            <mxPoint x="540" y="40" as="targetPoint" />
          </mxGeometry>
        </mxCell>
        <mxCell id="889P60M4afETW43CCBk1-17" value="&lt;font style=&quot;font-size: 10px;&quot;&gt;1.插件是否存在&lt;br&gt;&lt;div style=&quot;&quot;&gt;&lt;span style=&quot;background-color: initial;&quot;&gt;2.插件状态（是否打开、版本）&lt;/span&gt;&lt;/div&gt;&lt;/font&gt;" style="text;html=1;align=left;verticalAlign=middle;whiteSpace=wrap;rounded=0;" vertex="1" parent="IA07FoAzd7XtIn1neWYw-2">
          <mxGeometry x="353" y="72" width="140" height="30" as="geometry" />
        </mxCell>
        <mxCell id="889P60M4afETW43CCBk1-18" value="&lt;font style=&quot;font-size: 10px;&quot;&gt;1.操作插件（打开插件、继续聊天）&lt;br&gt;2.插件中注册事件&lt;/font&gt;" style="text;html=1;align=left;verticalAlign=middle;whiteSpace=wrap;rounded=0;fillColor=none;strokeColor=#d79b00;" vertex="1" parent="IA07FoAzd7XtIn1neWYw-2">
          <mxGeometry x="355" y="119" width="130" height="41" as="geometry" />
        </mxCell>
        <mxCell id="889P60M4afETW43CCBk1-20" value="&lt;font style=&quot;font-size: 10px;&quot;&gt;事件回调&lt;/font&gt;" style="text;html=1;align=left;verticalAlign=middle;whiteSpace=wrap;rounded=0;" vertex="1" parent="IA07FoAzd7XtIn1neWYw-2">
          <mxGeometry x="402" y="166.5" width="115" height="30" as="geometry" />
        </mxCell>
        <mxCell id="889P60M4afETW43CCBk1-21" value="插件展示处理" style="ellipse;shape=cloud;whiteSpace=wrap;html=1;" vertex="1" parent="IA07FoAzd7XtIn1neWYw-2">
          <mxGeometry x="540" y="93" width="140" height="67" as="geometry" />
        </mxCell>
        <mxCell id="889P60M4afETW43CCBk1-22" value="满足条件时插件触发&lt;br&gt;（多选聊天）" style="ellipse;shape=cloud;whiteSpace=wrap;html=1;rotation=15;" vertex="1" parent="IA07FoAzd7XtIn1neWYw-2">
          <mxGeometry x="540" y="160" width="120" height="80" as="geometry" />
        </mxCell>
        <mxCell id="889P60M4afETW43CCBk1-23" value="&lt;font style=&quot;font-size: 10px;&quot;&gt;1.Agent 列表&lt;br&gt;2.单论对话&lt;br&gt;3.多轮对话&lt;br&gt;4.会话列表&lt;br&gt;5.对话历史记录&lt;br&gt;...&lt;/font&gt;" style="text;html=1;align=left;verticalAlign=middle;whiteSpace=wrap;rounded=0;" vertex="1" parent="IA07FoAzd7XtIn1neWYw-2">
          <mxGeometry x="395" y="210" width="145" height="130" as="geometry" />
        </mxCell>
        <mxCell id="889P60M4afETW43CCBk1-25" value="" style="shape=flexArrow;endArrow=classic;startArrow=classic;html=1;rounded=0;entryX=0.538;entryY=-0.066;entryDx=0;entryDy=0;entryPerimeter=0;exitX=1.008;exitY=0.842;exitDx=0;exitDy=0;exitPerimeter=0;dashed=1;" edge="1" parent="IA07FoAzd7XtIn1neWYw-2" target="IA07FoAzd7XtIn1neWYw-10">
          <mxGeometry width="100" height="100" relative="1" as="geometry">
            <mxPoint x="310.29999999999995" y="320.00000000000006" as="sourcePoint" />
            <mxPoint x="385" y="452.29999999999995" as="targetPoint" />
            <Array as="points">
              <mxPoint x="398" y="350" />
            </Array>
          </mxGeometry>
        </mxCell>
        <mxCell id="IA07FoAzd7XtIn1neWYw-11" value="" style="shape=flexArrow;endArrow=classic;startArrow=classic;html=1;rounded=0;exitX=0.569;exitY=-0.033;exitDx=0;exitDy=0;exitPerimeter=0;entryX=0.5;entryY=1;entryDx=0;entryDy=0;" parent="IA07FoAzd7XtIn1neWYw-2" edge="1">
          <mxGeometry width="100" height="100" relative="1" as="geometry">
            <mxPoint x="468.03" y="468.02" as="sourcePoint" />
            <mxPoint x="466.97" y="390" as="targetPoint" />
          </mxGeometry>
        </mxCell>
        <mxCell id="889P60M4afETW43CCBk1-26" value="使用小明 Server的能力直接对网页进行渲染" style="ellipse;shape=cloud;whiteSpace=wrap;html=1;" vertex="1" parent="IA07FoAzd7XtIn1neWYw-2">
          <mxGeometry x="140" y="265" width="170" height="80" as="geometry" />
        </mxCell>
        <mxCell id="889P60M4afETW43CCBk1-27" value="根据用户的操作和选择进行网页的渲染" style="ellipse;shape=cloud;whiteSpace=wrap;html=1;" vertex="1" parent="IA07FoAzd7XtIn1neWYw-2">
          <mxGeometry x="70" y="160" width="250" height="75" as="geometry" />
        </mxCell>
        <mxCell id="889P60M4afETW43CCBk1-28" value="在小明插件中进行对话相关操作（以减轻网页端的 UI 的复杂度）" style="ellipse;shape=cloud;whiteSpace=wrap;html=1;" vertex="1" parent="IA07FoAzd7XtIn1neWYw-2">
          <mxGeometry x="60" y="87" width="250" height="80" as="geometry" />
        </mxCell>
        <mxCell id="IA07FoAzd7XtIn1neWYw-10" value="XMing.Server" style="rounded=0;whiteSpace=wrap;html=1;" parent="1" vertex="1">
          <mxGeometry x="100" y="550" width="740" height="60" as="geometry" />
        </mxCell>
        <mxCell id="IA07FoAzd7XtIn1neWYw-12" value="" style="shape=flexArrow;endArrow=classic;startArrow=classic;html=1;rounded=0;entryX=0.5;entryY=1;entryDx=0;entryDy=0;exitX=0.832;exitY=0.017;exitDx=0;exitDy=0;exitPerimeter=0;" parent="1" source="IA07FoAzd7XtIn1neWYw-10" target="IA07FoAzd7XtIn1neWYw-6" edge="1">
          <mxGeometry width="100" height="100" relative="1" as="geometry">
            <mxPoint x="630" y="570" as="sourcePoint" />
            <mxPoint x="730" y="470" as="targetPoint" />
          </mxGeometry>
        </mxCell>
      </root>
    </mxGraphModel>
  </diagram>
</mxfile>
